<svg width="61" height="67" viewBox="0 0 61 67" fill="none" xmlns="http://www.w3.org/2000/svg">
<path d="M35.8961 49.702C31.4633 49.702 27.1268 48.5583 23.3203 46.3663L28.1868 38.0747C30.5478 39.409 33.1979 40.1238 35.8961 40.1238C44.4246 40.1238 51.3148 33.2617 51.3148 24.8748C51.3148 16.4403 44.3764 9.62589 35.8961 9.62589C33.1979 9.62589 30.4996 10.3407 28.1868 11.675L23.3203 3.3357C27.1268 1.14367 31.5115 0 35.8961 0C49.7729 0 60.9996 11.1508 60.9996 24.8272C60.9996 38.5512 49.7247 49.702 35.8961 49.702Z" fill="#0064AA"/>
<path d="M25.7305 52.3706C31.372 52.3706 35.9453 47.8476 35.9453 42.2682C35.9453 36.6888 31.372 32.1658 25.7305 32.1658C20.089 32.1658 15.5156 36.6888 15.5156 42.2682C15.5156 47.8476 20.089 52.3706 25.7305 52.3706Z" fill="#0064AA"/>
<path d="M25.1035 67C11.2749 67 0 55.8969 0 42.2205C0 28.5441 11.2749 17.3933 25.1035 17.3933C32.6201 17.3933 39.6548 20.6814 44.4731 26.3997L36.9566 32.5469C34.0174 29.0206 29.6809 27.0192 25.0553 27.0192C16.575 27.0192 9.68483 33.8336 9.68483 42.2205C9.68483 50.6074 16.575 57.4218 25.0553 57.4218C29.3436 57.4218 33.3428 55.7063 36.282 52.6088L43.3649 59.1849C38.643 64.1408 31.9937 67 25.1035 67Z" fill="#0064AA"/>
</svg>
